# xmcd
#
# Track frame offsets:
#	150
#	24861
#	65141
#	82253
#	100472
#	120631
#	136131
#	150469
#	180064
#	211620
#
# Disc length: 3089 seconds
#
# Revision: 1
# Processed by: cddbd v1.5.2PL0 Copyright (c) Steve Scherf et al.
# Submitted via: audiograbber 1.83.01
#
DISCID=780c0f0a
DTITLE=Jeff Healey - Mess of Blues
DYEAR=2008
DGENRE=Blues
TTITLE0=I'm torn down
TTITLE1=How blue can you get
TTITLE2=Sugar sweet
TTITLE3=Jambalaya
TTITLE4=The weight
TTITLE5=Mess of Blues
TTITLE6=It's only money
TTITLE7=Like a hurricane
TTITLE8=Sittin on top of the world
TTITLE9=Shake rattle and roll
EXTD=Last CD
EXTT0=
EXTT1=
EXTT2=
EXTT3=
EXTT4=
EXTT5=
EXTT6=
EXTT7=
EXTT8=
EXTT9=
PLAYORDER=
